<svg width="321" height="198" viewBox="0 0 321 198" fill="none" xmlns="http://www.w3.org/2000/svg">
<path d="M109.26 167.85V151.45H98.6299V167.85C98.6299 176.13 105.12 182.87 113.1 182.87H155.71V172.24H113.1C110.98 172.24 109.25 170.27 109.25 167.85H109.26Z" fill="white"/>
<path d="M127.41 84.0597H116.78V52.2597C116.78 48.4297 114.25 45.3097 111.13 45.3097H88.1104V34.6797H111.13C120.11 34.6797 127.41 42.5697 127.41 52.2597V84.0597Z" fill="white"/>
<path d="M174.83 24.25H160.47C151.82 24.25 144.78 30.58 144.78 38.37V158.67H155.41V38.37C155.41 36.72 157.49 34.88 160.48 34.88H174.84V24.25H174.83Z" fill="white"/>
<path d="M123.01 140.24L131.69 134.11L111.02 104.85C109.51 102.71 107.05 101.43 104.43 101.43C101.81 101.43 99.3499 102.71 97.8399 104.85L77.1699 134.11L85.8499 140.24L104.43 113.93L123.01 140.24Z" fill="white"/>
<path d="M30.85 40.2199H56.85V29.5899H30.85C28.64 29.5899 26.84 27.7899 26.84 25.5799V2.85986H16.21V25.5799C16.21 33.6499 22.78 40.2199 30.85 40.2199Z" fill="white"/>
<path d="M74.7902 15.39V0H64.1602V41.15H74.7902V26.02H88.1202V15.39H74.7902Z" fill="white"/>
<path d="M25.6699 64.3698C25.6699 73.3398 32.9699 80.6398 41.9399 80.6398H74.2399V47.5498H25.6699V64.3798V64.3698ZM36.2999 58.1698H63.6099V70.0098H41.9399C38.8299 70.0098 36.2999 67.4798 36.2999 64.3698V58.1698Z" fill="white"/>
<path d="M187.08 49.22L205.65 22.93L224.22 49.22L232.9 43.09L215.42 18.34H231.27V7.70996H179.81V18.34H195.88L178.4 43.09L187.08 49.22Z" fill="white"/>
<path d="M200.22 89.3602H210.85V65.8302H239.14V55.2002H171.93V65.8302H200.22V89.3602Z" fill="white"/>
<path d="M294.08 95.2505H275.97V83.2305H265.11V95.2505H247V106.11H294.08V95.2505Z" fill="white"/>
<path d="M232.19 159.14V130.05C232.19 121.35 224.66 114.28 215.4 114.28H178.9V124.91H215.4C218.8 124.91 221.57 127.22 221.57 130.06V159.15H232.2L232.19 159.14Z" fill="white"/>
<path d="M309.7 112.99V164.01C309.7 168.55 306.01 172.25 301.46 172.25H275.34V156.36C284.87 153.98 291.95 145.37 291.95 135.11C291.95 123.02 282.12 113.19 270.03 113.19C257.94 113.19 248.11 123.02 248.11 135.11C248.11 145.36 255.19 153.97 264.72 156.36V172.25H215.66V149.03H205.03V172.25H192.9V149.03H182.27V172.25H166.43V182.88H301.47C311.87 182.88 320.33 174.42 320.33 164.01V112.99H309.7ZM258.74 135.11C258.74 128.88 263.81 123.82 270.03 123.82C276.25 123.82 281.33 128.89 281.33 135.11C281.33 141.33 276.26 146.41 270.03 146.41C263.8 146.41 258.74 141.34 258.74 135.11Z" fill="white"/>
<g opacity="0.5">
<path d="M138.37 37.1097H125.49V27.6598H138.37C142.23 27.6598 145.36 24.5197 145.36 20.6697V4.75977H154.81V20.6697C154.81 29.7297 147.43 37.1097 138.37 37.1097Z" fill="white"/>
</g>
<path d="M44.9 145.76V137.32H32.42V145.76H0V157H20.07H57.24H77.32V145.76H44.9Z" fill="white"/>
<path d="M16.9102 175.62C16.9102 187.63 26.6502 197.37 38.6602 197.37C50.6702 197.37 60.4102 187.63 60.4102 175.62C60.4102 163.61 50.6702 153.87 38.6602 153.87C26.6502 153.87 16.9102 163.61 16.9102 175.62ZM38.6602 164.32C44.8902 164.32 49.9602 169.39 49.9602 175.61C49.9602 181.83 44.8902 186.91 38.6602 186.91C32.4302 186.91 27.3702 181.84 27.3702 175.61C27.3702 169.38 32.4402 164.32 38.6602 164.32Z" fill="white"/>
<path d="M29.7803 137.43H65.0403V126.27H30.4603C26.6303 126.27 23.5103 123.15 23.5103 119.32V109.77H65.0403V98.54H12.2803V119.32C12.2803 129.11 20.0803 137.07 29.7803 137.44V137.43Z" fill="white"/>
</svg>
